{
  "accessors": [
    {
      "bufferView": 2,
      "componentType": 5126,
      "count": 386,
      "max": [
        0.5221869945526123,
        0.3431819975376129,
        0.19854900240898132
      ],
      "min": [
        -0.52053302526474,
        0.011226500384509563,
        0.08765149861574173
      ],
      "type": "VEC3"
    },
    {
      "bufferView": 2,
      "byteOffset": 4632,
      "componentType": 5126,
      "count": 386,
      "max": [
        0.8819371461868286,
        0.8818772435188293,
        1.0
      ],
      "min": [
        -0.8819371461868286,
        -0.8818768858909607,
        0.4713040590286255
      ],
      "type": "VEC3"
    },
    {
      "bufferView": 3,
      "componentType": 5126,
      "count": 386,
      "max": [
        -0.06499285995960236,
        0.9906383156776428,
        0.8332330584526062,
        1.0
      ],
      "min": [
        -1.0,
        -0.9906511902809143,
        -0.8332332372665405,
        -1.0
      ],
      "type": "VEC4"
    },
    {
      "bufferView": 1,
      "componentType": 5126,
      "count": 386,
      "max": [
        0.48159998655319214,
        -0.7121549844741821
      ],
      "min": [
        -0.48159998655319214,
        -0.8145949840545654
      ],
      "type": "VEC2"
    },
    {
      "bufferView": 1,
      "byteOffset": 3088,
      "componentType": 5126,
      "count": 386,
      "max": [
        0.48159998655319214,
        -0.7121549844741821
      ],
      "min": [
        -0.48159998655319214,
        -0.8145949840545654
      ],
      "type": "VEC2"
    },
    {
      "bufferView": 1,
      "byteOffset": 6176,
      "componentType": 5126,
      "count": 386,
      "max": [
        0.48159998655319214,
        -0.7121549844741821
      ],
      "min": [
        -0.48159998655319214,
        -0.8145949840545654
      ],
      "type": "VEC2"
    },
    {
      "bufferView": 1,
      "byteOffset": 9264,
      "componentType": 5126,
      "count": 386,
      "max": [
        0.48159998655319214,
        -0.7121549844741821
      ],
      "min": [
        -0.48159998655319214,
        -0.8145949840545654
      ],
      "type": "VEC2"
    },
    {
      "bufferView": 0,
      "componentType": 5125,
      "count": 2112,
      "type": "SCALAR"
    },
    {
      "bufferView": 2,
      "byteOffset": 9264,
      "componentType": 5126,
      "count": 1616,
      "max": [
        0.8808969855308533,
        1.0,
        0.5267800092697144
      ],
      "min": [
        -0.8808969855308533,
        -1.0,
        -0.5267800092697144
      ],
      "type": "VEC3"
    },
    {
      "bufferView": 2,
      "byteOffset": 28656,
      "componentType": 5126,
      "count": 1616,
      "max": [
        0.9923508763313293,
        0.9962399005889893,
        0.9996946454048157
      ],
      "min": [
        -0.9923478960990906,
        -0.9926612377166748,
        -0.999969482421875
      ],
      "type": "VEC3"
    },
    {
      "bufferView": 3,
      "byteOffset": 6176,
      "componentType": 5126,
      "count": 1616,
      "max": [
        0.3815176486968994,
        0.8033903241157532,
        0.9989197254180908,
        1.0
      ],
      "min": [
        -1.0,
        -0.728453516960144,
        -0.9999674558639526,
        -1.0
      ],
      "type": "VEC4"
    },
    {
      "bufferView": 1,
      "byteOffset": 12352,
      "componentType": 5126,
      "count": 1616,
      "max": [
        0.9986119866371155,
        0.9992290139198303
      ],
      "min": [
        0.001135980011895299,
        0.0019849499221891165
      ],
      "type": "VEC2"
    },
    {
      "bufferView": 1,
      "byteOffset": 25280,
      "componentType": 5126,
      "count": 1616,
      "max": [
        0.9986119866371155,
        0.9992290139198303
      ],
      "min": [
        0.001135980011895299,
        0.0019849499221891165
      ],
      "type": "VEC2"
    },
    {
      "bufferView": 1,
      "byteOffset": 38208,
      "componentType": 5126,
      "count": 1616,
      "max": [
        0.9986119866371155,
        0.9992290139198303
      ],
      "min": [
        0.001135980011895299,
        0.0019849499221891165
      ],
      "type": "VEC2"
    },
    {
      "bufferView": 1,
      "byteOffset": 51136,
      "componentType": 5126,
      "count": 1616,
      "max": [
        0.9986119866371155,
        0.9992290139198303
      ],
      "min": [
        0.001135980011895299,
        0.0019849499221891165
      ],
      "type": "VEC2"
    },
    {
      "bufferView": 0,
      "byteOffset": 8448,
      "componentType": 5125,
      "count": 8982,
      "type": "SCALAR"
    },
    {
      "bufferView": 2,
      "byteOffset": 48048,
      "componentType": 5126,
      "count": 660,
      "max": [
        0.5566440224647522,
        0.2579739987850189,
        0.2408120036125183
      ],
      "min": [
        -0.5549910068511963,
        0.12643200159072876,
        0.06808959692716599
      ],
      "type": "VEC3"
    },
    {
      "bufferView": 2,
      "byteOffset": 55968,
      "componentType": 5126,
      "count": 660,
      "max": [
        0.9924694895744324,
        0.9969087839126587,
        0.9988861083984375
      ],
      "min": [
        -0.9924694895744324,
        -0.9988139867782593,
        -0.9995454549789429
      ],
      "type": "VEC3"
    },
    {
      "bufferView": 3,
      "byteOffset": 32032,
      "componentType": 5126,
      "count": 660,
      "max": [
        0.3155183792114258,
        0.9993951916694641,
        0.6598089337348938,
        1.0
      ],
      "min": [
        -0.9999693632125854,
        -0.9993951320648193,
        -0.6598093509674072,
        -1.0
      ],
      "type": "VEC4"
    },
    {
      "bufferView": 1,
      "byteOffset": 64064,
      "componentType": 5126,
      "count": 660,
      "max": [
        0.5134299993515015,
        -0.6940850019454956
      ],
      "min": [
        -0.5134299993515015,
        -0.8536350131034851
      ],
      "type": "VEC2"
    },
    {
      "bufferView": 1,
      "byteOffset": 69344,
      "componentType": 5126,
      "count": 660,
      "max": [
        0.5134299993515015,
        -0.6940850019454956
      ],
      "min": [
        -0.5134299993515015,
        -0.8536350131034851
      ],
      "type": "VEC2"
    },
    {
      "bufferView": 1,
      "byteOffset": 74624,
      "componentType": 5126,
      "count": 660,
      "max": [
        0.5134299993515015,
        -0.6940850019454956
      ],
      "min": [
        -0.5134299993515015,
        -0.8536350131034851
      ],
      "type": "VEC2"
    },
    {
      "bufferView": 1,
      "byteOffset": 79904,
      "componentType": 5126,
      "count": 660,
      "max": [
        0.5134299993515015,
        -0.6940850019454956
      ],
      "min": [
        -0.5134299993515015,
        -0.8536350131034851
      ],
      "type": "VEC2"
    },
    {
      "bufferView": 0,
      "byteOffset": 44376,
      "componentType": 5125,
      "count": 3936,
      "type": "SCALAR"
    }
  ],
  "asset": {
    "extras": {
      "author": "naxete (https://sketchfab.com/naxete)",
      "license": "CC-BY-4.0 (http://creativecommons.org/licenses/by/4.0/)",
      "source": "https://sketchfab.com/3d-models/ghost-in-the-shell-geisha-mask-79df6677512249e9b98b898676182e1b",
      "title": "Ghost in the Shell Geisha Mask"
    },
    "generator": "Sketchfab-12.65.0",
    "version": "2.0"
  },
  "bufferViews": [
    {
      "buffer": 0,
      "byteLength": 60120,
      "name": "floatBufferViews",
      "target": 34963
    },
    {
      "buffer": 0,
      "byteLength": 85184,
      "byteOffset": 60120,
      "byteStride": 8,
      "name": "floatBufferViews",
      "target": 34962
    },
    {
      "buffer": 0,
      "byteLength": 63888,
      "byteOffset": 145304,
      "byteStride": 12,
      "name": "floatBufferViews",
      "target": 34962
    },
    {
      "buffer": 0,
      "byteLength": 42592,
      "byteOffset": 209192,
      "byteStride": 16,
      "name": "floatBufferViews",
      "target": 34962
    }
  ],
  "buffers": [
    {
      "byteLength": 251784,
      "uri": "scene.bin"
    }
  ],
  "images": [
    {
      "uri": "textures/Eyes_baseColor.jpeg"
    },
    {
      "uri": "textures/Eyes_metallicRoughness.png"
    },
    {
      "uri": "textures/Eyes_normal.png"
    },
    {
      "uri": "textures/Face_baseColor.jpeg"
    },
    {
      "uri": "textures/Face_metallicRoughness.png"
    },
    {
      "uri": "textures/Face_normal.png"
    },
    {
      "uri": "textures/Face02_baseColor.jpeg"
    },
    {
      "uri": "textures/Face02_metallicRoughness.png"
    },
    {
      "uri": "textures/Face02_normal.png"
    }
  ],
  "materials": [
    {
      "doubleSided": true,
      "name": "Eyes",
      "normalTexture": {
        "index": 2
      },
      "pbrMetallicRoughness": {
        "baseColorTexture": {
          "index": 0
        },
        "metallicRoughnessTexture": {
          "index": 1
        }
      }
    },
    {
      "doubleSided": true,
      "name": "Face",
      "normalTexture": {
        "index": 5
      },
      "pbrMetallicRoughness": {
        "baseColorTexture": {
          "index": 3
        },
        "metallicFactor": 0.12,
        "metallicRoughnessTexture": {
          "index": 4
        }
      }
    },
    {
      "doubleSided": true,
      "name": "Face02",
      "normalTexture": {
        "index": 8
      },
      "pbrMetallicRoughness": {
        "baseColorTexture": {
          "index": 6
        },
        "metallicRoughnessTexture": {
          "index": 7
        }
      }
    }
  ],
  "meshes": [
    {
      "name": "Object_0",
      "primitives": [
        {
          "attributes": {
            "NORMAL": 1,
            "POSITION": 0,
            "TANGENT": 2,
            "TEXCOORD_0": 3,
            "TEXCOORD_1": 4,
            "TEXCOORD_2": 5,
            "TEXCOORD_3": 6
          },
          "indices": 7,
          "material": 0,
          "mode": 4
        }
      ]
    },
    {
      "name": "Object_1",
      "primitives": [
        {
          "attributes": {
            "NORMAL": 9,
            "POSITION": 8,
            "TANGENT": 10,
            "TEXCOORD_0": 11,
            "TEXCOORD_1": 12,
            "TEXCOORD_2": 13,
            "TEXCOORD_3": 14
          },
          "indices": 15,
          "material": 1,
          "mode": 4
        }
      ]
    },
    {
      "name": "Object_2",
      "primitives": [
        {
          "attributes": {
            "NORMAL": 17,
            "POSITION": 16,
            "TANGENT": 18,
            "TEXCOORD_0": 19,
            "TEXCOORD_1": 20,
            "TEXCOORD_2": 21,
            "TEXCOORD_3": 22
          },
          "indices": 23,
          "material": 2,
          "mode": 4
        }
      ]
    }
  ],
  "nodes": [
    {
      "children": [
        1
      ],
      "matrix": [
        0.4122951030731201,
        0.0,
        0.0,
        0.0,
        0.0,
        9.154790327439602e-17,
        -0.4122951030731201,
        0.0,
        0.0,
        0.4122951030731201,
        9.154790327439602e-17,
        0.0,
        0.0,
        0.0,
        0.0,
        1.0
      ],
      "name": "Sketchfab_model"
    },
    {
      "children": [
        2
      ],
      "name": "root"
    },
    {
      "children": [
        3
      ],
      "matrix": [
        1.0,
        0.0,
        0.0,
        0.0,
        0.0,
        2.220446049250313e-16,
        1.0,
        0.0,
        0.0,
        -1.0,
        2.220446049250313e-16,
        0.0,
        0.0,
        0.0,
        0.0,
        1.0
      ],
      "name": "GLTF_SceneRootNode"
    },
    {
      "children": [
        4
      ],
      "name": "gits_geisha_mask.glb_9"
    },
    {
      "children": [
        5
      ],
      "matrix": [
        1.0,
        0.0,
        0.0,
        0.0,
        0.0,
        2.220446049250313e-16,
        -1.0,
        0.0,
        0.0,
        1.0,
        2.220446049250313e-16,
        0.0,
        0.0,
        0.0,
        0.0,
        1.0
      ],
      "name": "RootNode_(gltf_orientation_matrix)_8"
    },
    {
      "children": [
        6
      ],
      "name": "RootNode_(model_correction_matrix)_7"
    },
    {
      "children": [
        7,
        10,
        13
      ],
      "matrix": [
        1.0,
        0.0,
        0.0,
        0.0,
        0.0,
        -4.371139183945161e-08,
        1.0,
        0.0,
        0.0,
        -1.0,
        -4.371139183945161e-08,
        0.0,
        0.0,
        0.0,
        0.0,
        1.0
      ],
      "name": "Collada_visual_scene_group_6"
    },
    {
      "children": [
        8
      ],
      "name": "Object002_1"
    },
    {
      "children": [
        9
      ],
      "name": "defaultMaterial_0"
    },
    {
      "mesh": 0,
      "name": "Object_9"
    },
    {
      "children": [
        11
      ],
      "name": "Object001_3"
    },
    {
      "children": [
        12
      ],
      "name": "defaultMaterial_2"
    },
    {
      "mesh": 1,
      "name": "Object_12"
    },
    {
      "children": [
        14
      ],
      "name": "GeishaMask_Decimation1_5"
    },
    {
      "children": [
        15
      ],
      "name": "defaultMaterial_4"
    },
    {
      "mesh": 2,
      "name": "Object_15"
    }
  ],
  "samplers": [
    {
      "magFilter": 9729,
      "minFilter": 9987,
      "wrapS": 10497,
      "wrapT": 10497
    }
  ],
  "scene": 0,
  "scenes": [
    {
      "name": "Sketchfab_Scene",
      "nodes": [
        0
      ]
    }
  ],
  "textures": [
    {
      "sampler": 0,
      "source": 0
    },
    {
      "sampler": 0,
      "source": 1
    },
    {
      "sampler": 0,
      "source": 2
    },
    {
      "sampler": 0,
      "source": 3
    },
    {
      "sampler": 0,
      "source": 4
    },
    {
      "sampler": 0,
      "source": 5
    },
    {
      "sampler": 0,
      "source": 6
    },
    {
      "sampler": 0,
      "source": 7
    },
    {
      "sampler": 0,
      "source": 8
    }
  ]
}
